<svg width="15" height="17" viewBox="0 0 15 17" fill="none" xmlns="http://www.w3.org/2000/svg">
<path d="M13.9609 12.8914H1.49669C1.22197 12.8914 0.998116 12.652 0.998116 12.3581C0.998116 12.0642 1.22197 11.8248 1.49669 11.8248H1.99526H3.49097H12.9638C13.1991 11.8248 13.402 11.6488 13.4514 11.4029L14.9471 3.93623C14.9785 3.7789 14.9416 3.6141 14.8474 3.4893C14.7527 3.36396 14.6101 3.29143 14.4595 3.29143H2.49383V1.69143C2.49383 0.809297 1.82275 0.0914307 0.998116 0.0914307H0.499546C0.224336 0.0914307 0.000976562 0.330364 0.000976562 0.624764C0.000976562 0.919164 0.224336 1.1581 0.499546 1.1581H0.998116C1.27283 1.1581 1.49669 1.39756 1.49669 1.69143V3.82476V10.7581C0.672052 10.7581 0.000976562 11.476 0.000976562 12.3581C0.000976562 13.2402 0.672052 13.9581 1.49669 13.9581H2.58556C2.52972 14.1256 2.49383 14.3037 2.49383 14.4914C2.49383 15.3736 3.1649 16.0914 3.98954 16.0914C4.81417 16.0914 5.48524 15.3736 5.48524 14.4914C5.48524 14.3037 5.44935 14.1256 5.39351 13.9581H10.0646C10.0083 14.1256 9.97237 14.3037 9.97237 14.4914C9.97237 15.3736 10.6434 16.0914 11.4681 16.0914C12.2927 16.0914 12.9638 15.3736 12.9638 14.4914C12.9638 14.3037 12.9279 14.1256 12.8721 13.9581H13.9609C14.2361 13.9581 14.4595 13.7192 14.4595 13.4248C14.4595 13.1304 14.2361 12.8914 13.9609 12.8914ZM2.49383 4.3581H13.8428L12.5604 10.7581H3.49097H2.49383V4.3581ZM4.48811 14.4914C4.48811 14.7853 4.26425 15.0248 3.98954 15.0248C3.71482 15.0248 3.49097 14.7853 3.49097 14.4914C3.49097 14.1976 3.71482 13.9581 3.98954 13.9581C4.26425 13.9581 4.48811 14.1976 4.48811 14.4914ZM11.9667 14.4914C11.9667 14.7853 11.7428 15.0248 11.4681 15.0248C11.1934 15.0248 10.9695 14.7853 10.9695 14.4914C10.9695 14.1976 11.1934 13.9581 11.4681 13.9581C11.7428 13.9581 11.9667 14.1976 11.9667 14.4914Z" fill="white"/>
</svg>
