<svg width="15" height="17" viewBox="0 0 15 17" fill="none" xmlns="http://www.w3.org/2000/svg">
<path d="M13.96 12.8914H1.49571C1.221 12.8914 0.99714 12.652 0.99714 12.3581C0.99714 12.0642 1.221 11.8248 1.49571 11.8248H1.99428H3.48999H12.9628C13.1981 11.8248 13.4011 11.6488 13.4504 11.4029L14.9461 3.93623C14.9775 3.7789 14.9406 3.6141 14.8464 3.4893C14.7517 3.36396 14.6091 3.29143 14.4585 3.29143H2.49285V1.69143C2.49285 0.809297 1.82177 0.0914307 0.99714 0.0914307H0.49857C0.223359 0.0914307 0 0.330364 0 0.624764C0 0.919164 0.223359 1.1581 0.49857 1.1581H0.99714C1.27185 1.1581 1.49571 1.39756 1.49571 1.69143V3.82476V10.7581C0.671075 10.7581 0 11.476 0 12.3581C0 13.2402 0.671075 13.9581 1.49571 13.9581H2.58459C2.52875 14.1256 2.49285 14.3037 2.49285 14.4914C2.49285 15.3736 3.16392 16.0914 3.98856 16.0914C4.81319 16.0914 5.48427 15.3736 5.48427 14.4914C5.48427 14.3037 5.44837 14.1256 5.39253 13.9581H10.0636C10.0073 14.1256 9.9714 14.3037 9.9714 14.4914C9.9714 15.3736 10.6425 16.0914 11.4671 16.0914C12.2917 16.0914 12.9628 15.3736 12.9628 14.4914C12.9628 14.3037 12.9269 14.1256 12.8711 13.9581H13.96C14.2352 13.9581 14.4585 13.7192 14.4585 13.4248C14.4585 13.1304 14.2352 12.8914 13.96 12.8914ZM2.49285 4.3581H13.8418L12.5595 10.7581H3.48999H2.49285V4.3581ZM4.48713 14.4914C4.48713 14.7853 4.26327 15.0248 3.98856 15.0248C3.71385 15.0248 3.48999 14.7853 3.48999 14.4914C3.48999 14.1976 3.71385 13.9581 3.98856 13.9581C4.26327 13.9581 4.48713 14.1976 4.48713 14.4914ZM11.9657 14.4914C11.9657 14.7853 11.7418 15.0248 11.4671 15.0248C11.1924 15.0248 10.9685 14.7853 10.9685 14.4914C10.9685 14.1976 11.1924 13.9581 11.4671 13.9581C11.7418 13.9581 11.9657 14.1976 11.9657 14.4914Z" fill="#004577"/>
</svg>
