<svg width="170" height="170" viewBox="0 0 170 170" fill="none" xmlns="http://www.w3.org/2000/svg">
<g filter="url(#filter0_b)">
<path d="M167.09 78.6804C170.553 81.6369 170.988 86.8695 168.056 90.3676C167.761 90.7181 167.437 91.0448 167.09 91.3424H167.061C163.851 94.0486 163.183 98.7627 165.515 102.267C168.024 106.074 166.997 111.213 163.227 113.742C162.833 114.007 162.419 114.237 161.984 114.428C159.008 115.747 157.086 118.716 157.083 121.996C157.083 122.823 157.199 123.648 157.432 124.44V124.47C158.775 128.816 156.368 133.439 152.061 134.794C151.606 134.938 151.136 135.041 150.663 135.1H150.634C146.491 135.627 143.407 139.22 143.486 143.433V143.463C143.561 148.015 139.964 151.767 135.453 151.843C134.969 151.852 134.482 151.817 134.003 151.737C133.577 151.678 133.148 151.649 132.72 151.649C129.029 151.637 125.787 154.122 124.813 157.715C123.838 161.307 120.596 163.792 116.906 163.781C115.683 163.789 114.478 163.515 113.375 162.985C112.275 162.443 111.067 162.161 109.845 162.161C107.014 162.161 104.386 163.642 102.9 166.077V166.107C100.508 169.979 95.4602 171.163 91.6206 168.748C91.2122 168.492 90.827 168.197 90.4711 167.873C87.3463 165.085 82.6544 165.085 79.5296 167.873C76.1624 170.927 70.9807 170.65 67.9549 167.252C67.6368 166.896 67.351 166.513 67.0999 166.107V166.077C64.9089 162.491 60.3862 161.154 56.6253 162.985H56.5961C52.526 164.949 47.6475 163.215 45.7014 159.107C45.4886 158.66 45.3163 158.194 45.1878 157.715C44.2192 154.125 40.9948 151.634 37.3099 151.619C36.8693 151.628 36.4317 151.669 35.9971 151.737C35.5625 151.805 35.1248 151.846 34.6842 151.855C30.1616 151.843 26.5029 148.136 26.5146 143.569C26.5146 143.534 26.5146 143.498 26.5146 143.463V143.433C26.5932 139.22 23.5093 135.627 19.3662 135.1H19.337C14.8612 134.526 11.6956 130.398 12.2644 125.881C12.3258 125.404 12.4277 124.93 12.5678 124.47V124.441C13.7934 120.421 11.8354 116.113 8.01633 114.429C3.87023 112.589 1.98528 107.706 3.80615 103.522C3.99574 103.086 4.22352 102.665 4.48582 102.268C6.83761 98.7698 6.16657 94.0375 2.93955 91.3434H2.91C-0.55344 88.3868 -0.988072 83.1543 1.94411 79.6562C2.23896 79.3057 2.56269 78.979 2.91 78.6814L2.93921 78.6519C6.15163 75.9604 6.81968 71.2489 4.48549 67.7566V67.7271C1.98196 63.9375 2.99466 58.8195 6.74963 56.2929C7.14939 56.0222 7.57539 55.7893 8.016 55.5949C10.998 54.2756 12.9294 51.3104 12.947 48.0271C12.95 47.188 12.8215 46.3516 12.5678 45.5537C12.3138 44.7559 12.1857 43.9195 12.1887 43.0804C12.1887 38.9138 15.2669 35.4006 19.3662 34.8943C23.4423 34.3759 26.5029 30.8839 26.5146 26.7377V26.4137C26.5059 21.8611 30.156 18.1626 34.6666 18.1509C35.1129 18.1509 35.5595 18.1861 35.9971 18.2568C36.4317 18.3245 36.8693 18.3657 37.3099 18.3744C40.9978 18.3714 44.2249 15.8716 45.1878 12.279C46.1855 8.68943 49.4301 6.21005 53.124 6.21306C54.3349 6.20435 55.5339 6.47812 56.6253 7.00825V7.03774C60.3949 8.8429 64.9059 7.50017 67.0999 3.91631C68.5908 1.47513 71.2314 -0.00599597 74.0733 3.57706e-05C76.0894 -0.00599597 78.0384 0.750987 79.5296 2.12019C82.6371 4.95008 87.3636 4.95008 90.4711 2.12019C91.9619 0.750987 93.9109 -0.00599597 95.927 3.57706e-05C98.7689 -0.00599597 101.41 1.47547 102.9 3.91631C104.391 6.35715 107.032 7.83862 109.874 7.83258C111.085 7.82655 112.278 7.55579 113.375 7.0374L113.404 7.00791C117.492 5.04961 122.379 6.81054 124.317 10.9359C124.521 11.3689 124.684 11.8162 124.813 12.2786C125.781 15.8682 129.005 18.3593 132.69 18.3741C133.131 18.3653 133.569 18.3241 134.003 18.2564C134.447 18.1887 134.896 18.1475 135.345 18.1388C139.868 18.1653 143.515 21.8872 143.486 26.4516C143.486 26.4867 143.486 26.5223 143.486 26.5605V26.6781C143.477 30.8417 146.54 34.3635 150.634 34.8936H150.663C155.139 35.465 158.311 39.5873 157.748 44.1044C157.686 44.5964 157.581 45.0792 157.432 45.5531C157.202 46.3483 157.085 47.1696 157.083 47.9973C157.074 51.2866 158.999 54.2693 161.984 55.5946C166.13 57.4349 168.015 62.3173 166.195 66.5016C166.005 66.9376 165.777 67.3585 165.515 67.7559C163.163 71.2453 163.834 75.9685 167.061 78.6512L167.09 78.6804ZM149.584 85.394C149.584 49.6168 120.844 20.6118 85.3936 20.6118C49.9431 20.6118 21.204 49.6168 21.204 85.394C21.204 121.171 49.9435 150.176 85.394 150.176C120.844 150.176 149.584 121.174 149.584 85.394Z" fill="#FFC5D0"/>
</g>
<rect x="14" y="15" width="141" height="139" rx="69.5" fill="#E6506E"/>
<defs>
<filter id="filter0_b" x="-4" y="-4" width="178" height="178" filterUnits="userSpaceOnUse" color-interpolation-filters="sRGB">
<feFlood flood-opacity="0" result="BackgroundImageFix"/>
<feGaussianBlur in="BackgroundImage" stdDeviation="2"/>
<feComposite in2="SourceAlpha" operator="in" result="effect1_backgroundBlur"/>
<feBlend mode="normal" in="SourceGraphic" in2="effect1_backgroundBlur" result="shape"/>
</filter>
</defs>
</svg>
